PathFileType	4	(X/Y/Z)	Run_300 01
DataRate	CameraRate	NumFrames	NumMarkers	Units	OrigDataRate	OrigDataStartFrame	OrigNumFrames
100	100	5	42	mm	100	107	128
Frame#	Time	LASI			RASI			LPSI			RPSI			RTH1			RTH2			RTH3			LTH1			LTH2			LTH3			RTB1			RTB2			RTB3			LTB1			LTB2			LTB3			RCAL			RTOE			RMT5			LCAL			LTOE			LACR			RACR			CLAV			C7			RUA1			RUA2			RUA3			RLEL			RMEL			LUA1			LUA2			LUA3			LLEL			LMEL			RFAsuperior			RFAradius			RFAulna			LFAsuperior			LFAradius			LFAulna			LMT5			
		X1	Y1	Z1	X2	Y2	Z2	X3	Y3	Z3	X4	Y4	Z4	X5	Y5	Z5	X6	Y6	Z6	X7	Y7	Z7	X8	Y8	Z8	X9	Y9	Z9	X10	Y10	Z10	X11	Y11	Z11	X12	Y12	Z12	X13	Y13	Z13	X14	Y14	Z14	X15	Y15	Z15	X16	Y16	Z16	X17	Y17	Z17	X18	Y18	Z18	X19	Y19	Z19	X20	Y20	Z20	X21	Y21	Z21	X22	Y22	Z22	X23	Y23	Z23	X24	Y24	Z24	X25	Y25	Z25	X26	Y26	Z26	X27	Y27	Z27	X28	Y28	Z28	X29	Y29	Z29	X30	Y30	Z30	X31	Y31	Z31	X32	Y32	Z32	X33	Y33	Z33	X34	Y34	Z34	X35	Y35	Z35	X36	Y36	Z36	X37	Y37	Z37	X38	Y38	Z38	X39	Y39	Z39	X40	Y40	Z40	X41	Y41	Z41	X42	Y42	Z42	

101	1.43	735.985902	1057.329543	-451.012593	742.365467	1038.924582	-204.481591	558.115085	1130.900207	-362.418599	563.442996	1129.542995	-276.825224	662.352022	904.256797	-148.278704	685.6253390000001	759.9058690000001	-173.363743	587.128651	673.596793	-183.09029	686.969124	939.907211	-513.789485	781.470006	841.563186	-489.287919	741.223328	691.433909	-471.974981	495.590627	444.570611	-241.588276	385.648712	427.250985	-194.409937	319.377274	349.037538	-253.487248	846.773323	484.257331	-403.973338	796.90352	396.829539	-462.303933	859.505118	279.4123	-387.755627	153.704364	399.10053	-279.079557	223.503382	176.184477	-282.791896	168.78158	186.219442	-204.991798	754.7336769999999	123.469909	-351.811362	983.882925	129.484617	-365.572708	690.295443	1585.806957	-482.297057	714.280067	1560.584568	-149.031856	780.20065	1530.774742	-303.724207	642.757444	1604.431606	-326.28646	658.637232	1456.299192	-65.453014	577.359291	1390.305324	-84.214831	617.352536	1348.240813	-32.129627	598.609749	1254.178385	-5.442344	558.214221	1237.52789	-76.74855700000001	601.412428	1527.259813	-574.623062	515.414103	1477.260325	-551.660228	528.944738	1442.516096	-623.871633	487.197033	1368.043469	-665.3198630000001	435.767512	1356.755709	-606.505378	658.063547	1198.92583	-18.06439	829.099599	1146.880672	-120.891637	795.370759	1089.866633	-92.626648	550.768075	1261.258874	-641.296283	653.903169	1185.95136	-545.120346	604.653994	1144.675503	-565.497292	954.8578690000001	78.92460800000001	-436.659647	
102	1.44	734.962233	1050.124761	-452.585443	743.046801	1035.176727	-205.632006	557.094611	1124.04347	-362.675339	562.0782830000001	1122.868021	-276.95861	666.782231	898.819506	-148.091427	693.594731	755.00553	-172.055969	598.071776	666.19075	-181.989362	685.345092	933.778864	-514.50024	778.4287399999999	834.5619359999999	-490.240922	737.077866	685.1973	-471.232315	503.608859	442.063063	-239.803662	392.332833	432.39089	-193.315334	321.959637	357.802688	-252.094627	841.826923	477.901815	-402.838815	791.058447	390.090384	-459.724835	855.316044	273.161549	-386.227153	158.80961	416.977826	-278.322113	218.139796	191.016626	-279.604254	164.386241	204.585939	-201.360575	750.56879	119.397375	-345.922283	979.286144	119.88454	-365.901196	690.036326	1579.59043	-484.616413	712.804574	1555.978441	-150.690913	779.324593	1525.384185	-305.109216	641.988262	1599.559682	-328.673877	656.119092	1452.007706	-67.077601	574.400021	1386.78136	-86.150457	613.969066	1344.186938	-33.97711	593.852332	1250.370848	-7.361936	553.820926	1234.319273	-78.831422	602.5826949999999	1518.962134	-577.845489	517.027032	1467.823604	-555.7184099999999	532.2859989999999	1432.359304	-627.422724	492.289814	1357.365224	-669.036691	440.134633	1345.415738	-610.644449	652.015722	1193.63727	-18.755426	823.123029	1136.637274	-119.144882	787.331872	1080.657671	-91.376289	557.389226	1251.885729	-643.004222	660.759831	1179.627735	-544.7089099999999	612.758418	1137.301177	-565.7215650000001	947.2444840000001	69.05874900000001	-435.836124	
103	1.45	733.7496190000001	1041.904634	-453.80543	743.414612	1030.40439	-206.419223	555.893737	1116.16504	-362.585742	560.8175660000001	1115.191784	-276.778955	670.276374	892.916887	-147.519437	701.847178	749.328973	-170.170469	609.534026	658.0160980000001	-180.301241	683.5435179999999	926.9034370000001	-514.841137	776.535946	827.965404	-491.426134	733.4343730000001	678.351171	-470.163892	513.296696	439.120351	-237.494503	401.090747	436.886966	-191.708219	327.188682	365.812465	-250.519365	836.52918	469.995953	-402.245806	784.350218	382.34314	-458.177937	848.396957	265.193043	-384.922564	166.656564	433.452955	-276.585044	216.331637	205.219774	-277.309571	164.223122	221.497171	-198.339984	741.277884	116.024743	-341.766417	969.6240759999999	107.24073	-363.37567	689.654754	1572.250987	-486.898517	710.790346	1550.204036	-152.43409	778.2517360000001	1519.008793	-306.411721	641.019861	1593.681377	-331.246561	652.970989	1446.859506	-68.80652000000001	571.102693	1382.193583	-88.31599	610.060064	1339.050415	-35.868537	588.586306	1245.603121	-9.298220000000001	549.026168	1230.090609	-81.01665300000001	604.181595	1509.196718	-581.286367	519.125717	1456.828109	-560.491352	536.667458	1420.465388	-631.481847	498.433282	1345.036167	-673.110595	445.629699	1332.303675	-615.343467	645.430601	1187.378628	-19.316934	816.46468	1124.779895	-116.733749	778.346306	1070.01326	-89.66613599999999	565.20251	1241.128278	-644.819163	668.7491	1172.549503	-543.985278	622.260176	1129.071694	-565.846191	934.6417300000001	58.2289	-433.224008	
104	1.46	732.4317140000001	1032.892202	-454.706125	743.550294	1024.596323	-206.986374	554.600905	1107.487846	-362.184738	559.835167	1106.442797	-276.435694	673.370763	886.30882	-146.787483	710.263458	742.966495	-167.988932	621.386387	649.176185	-178.196954	681.641821	919.014978	-514.479005	775.330448	821.377629	-492.065647	730.516383	670.670723	-469.398203	524.558506	435.649938	-234.753116	411.962514	440.300181	-189.616219	334.872671	372.811926	-248.670931	830.897114	460.489601	-401.605084	776.9250039999999	373.567055	-457.19159	837.510956	255.528579	-382.56438	177.173841	448.226456	-274.291412	218.187294	218.322572	-275.751488	167.55163	236.475079	-196.15441	724.9920519999999	112.211637	-338.322613	953.696595	93.64315999999999	-358.507169	689.199137	1563.900792	-489.142248	708.241247	1543.419147	-154.159096	776.98573	1511.718038	-307.666734	639.91114	1586.753078	-333.89675	649.3064900000001	1440.897193	-70.60921	567.406482	1376.520864	-90.79080500000001	605.688696	1332.922452	-37.894433	582.815465	1239.995383	-11.203536	543.853397	1224.937485	-83.239171	606.213604	1498.080974	-584.81393	521.703608	1444.465062	-565.8471039999999	541.971871	1407.189593	-635.906595	505.635602	1331.379527	-677.286772	452.349732	1317.640566	-620.340762	638.171533	1180.107837	-19.801152	809.0040749999999	1111.545732	-113.486287	768.448593	1058.137817	-87.557366	574.196899	1229.306987	-646.6464999999999	677.829882	1165.020861	-543.002751	633.13023	1120.269791	-565.830919	915.947064	49.980774	-430.320351	
105	1.47	730.748038	1023.174638	-455.451216	743.475057	1017.806855	-207.442618	552.942274	1098.110509	-361.624196	558.558853	1096.393203	-276.074664	676.758617	878.62078	-146.074552	718.781211	736.1325450000001	-165.627739	633.677296	639.743542	-175.918166	679.75875	909.973472	-513.559186	774.059095	814.0634690000001	-491.478884	728.634788	662.2092	-469.522727	537.355488	431.625153	-231.75398	424.909406	442.33303	-187.219821	344.903204	378.607317	-246.585851	824.379062	449.653366	-399.928541	768.245711	364.137215	-455.698378	821.1709970000001	244.702657	-377.993089	190.082902	460.978577	-271.796241	223.726535	229.962916	-274.58771	174.100088	249.259307	-194.739893	700.446358	106.177854	-334.267502	930.701959	82.444935	-353.217905	688.783717	1554.708033	-491.408621	705.259106	1535.913093	-155.736207	775.665027	1503.608944	-308.814393	638.693882	1578.660424	-336.438141	645.25289	1434.010747	-72.559347	563.278109	1369.795894	-93.586364	600.8575980000001	1325.922139	-40.112963	576.589163	1233.650085	-13.140133	538.383665	1218.992164	-85.482311	608.646616	1485.726116	-588.370183	524.7825329999999	1430.831683	-571.569569	547.962338	1392.87568	-640.525302	513.916477	1316.715269	-681.419806	460.266678	1301.747871	-625.384043	630.238556	1171.902798	-20.231655	800.646122	1097.173989	-109.367651	757.675238	1045.238782	-85.093594	584.40771	1216.794675	-648.393535	687.948541	1157.298475	-541.88247	645.280028	1111.151594	-565.63692	890.845523	46.42888	-428.541677	
